<svg width="375" height="45" viewBox="0 0 375 45" fill="none" xmlns="http://www.w3.org/2000/svg">
<path d="M36.1022 0.530273C35.3027 0.530273 34.6523 1.18001 34.6523 1.97866C34.6523 2.77731 35.3027 3.42704 36.1022 3.42704C36.9016 3.42704 37.5519 2.77731 37.5519 1.97866C37.5519 1.18001 36.9016 0.530273 36.1022 0.530273Z" fill="#009B9A"/>
<path d="M41.3736 3.42704C42.1731 3.42704 42.8235 2.77731 42.8235 1.97866C42.8235 1.18001 42.1731 0.530273 41.3736 0.530273C40.5742 0.530273 39.9238 1.18001 39.9238 1.97866C39.9238 2.77731 40.5674 3.42704 41.3736 3.42704Z" fill="#009B9A"/>
<path d="M46.6373 3.42704C47.4368 3.42704 48.0871 2.77731 48.0871 1.97866C48.0871 1.18001 47.4368 0.530273 46.6373 0.530273C45.8379 0.530273 45.1875 1.18001 45.1875 1.97866C45.1875 2.77731 45.8379 3.42704 46.6373 3.42704Z" fill="#009B9A"/>
<path d="M41.0145 8.09663C41.9156 8.09663 42.654 7.36568 42.654 6.45874C42.654 5.55857 41.9224 4.8208 41.0145 4.8208C40.1067 4.8208 39.375 5.5518 39.375 6.45874C39.3818 7.36568 40.1135 8.09663 41.0145 8.09663Z" fill="#009B9A"/>
<path d="M45.8446 8.09663C46.7456 8.09663 47.4841 7.36568 47.4841 6.45874C47.4841 5.55857 46.7524 4.8208 45.8446 4.8208C44.9435 4.8208 44.2051 5.5518 44.2051 6.45874C44.2119 7.36568 44.9435 8.09663 45.8446 8.09663Z" fill="#009B9A"/>
<path d="M50.6747 8.09663C51.5757 8.09663 52.3142 7.36568 52.3142 6.45874C52.3142 5.55857 51.5825 4.8208 50.6747 4.8208C49.7736 4.8208 49.0352 5.5518 49.0352 6.45874C49.0419 7.36568 49.7736 8.09663 50.6747 8.09663Z" fill="#009B9A"/>
<path d="M55.5067 8.09663C56.4077 8.09663 57.1462 7.36568 57.1462 6.45874C57.1462 5.55857 56.4145 4.8208 55.5067 4.8208C54.6056 4.8208 53.8672 5.5518 53.8672 6.45874C53.8672 7.36568 54.6056 8.09663 55.5067 8.09663Z" fill="#009B9A"/>
<path d="M41.9355 11.4608C41.9355 12.5167 42.7892 13.3695 43.8461 13.3695C44.9029 13.3695 45.7566 12.5167 45.7566 11.4608C45.7566 10.405 44.9029 9.55225 43.8461 9.55225C42.7892 9.55225 41.9355 10.405 41.9355 11.4608Z" fill="#009B9A"/>
<path d="M51.2175 11.4608C51.2175 10.405 50.3639 9.55225 49.307 9.55225C48.2501 9.55225 47.3965 10.405 47.3965 11.4608C47.3965 12.5167 48.2501 13.3695 49.307 13.3695C50.3639 13.3627 51.2175 12.5099 51.2175 11.4608Z" fill="#009B9A"/>
<path d="M54.7757 13.3631C55.8326 13.3631 56.6862 12.5104 56.6862 11.4545C56.6862 10.3987 55.8326 9.5459 54.7757 9.5459C53.7189 9.5459 52.8652 10.3987 52.8652 11.4545C52.8652 12.5104 53.7189 13.3631 54.7757 13.3631Z" fill="#009B9A"/>
<path d="M60.2347 13.3631C61.2916 13.3631 62.1452 12.5104 62.1452 11.4545C62.1452 10.3987 61.2916 9.5459 60.2347 9.5459C59.1779 9.5459 58.3242 10.3987 58.3242 11.4545C58.331 12.5104 59.1846 13.3631 60.2347 13.3631Z" fill="#009B9A"/>
<path d="M45.1878 18.7235C46.2447 18.7235 47.0984 17.8707 47.0984 16.8149C47.0984 15.759 46.2447 14.9062 45.1878 14.9062C44.131 14.9062 43.2773 15.759 43.2773 16.8149C43.2773 17.8707 44.1378 18.7235 45.1878 18.7235Z" fill="#009B9A"/>
<path d="M49.1309 16.8149C49.1309 17.8707 49.9845 18.7235 51.0414 18.7235C52.0982 18.7235 52.9519 17.8707 52.9519 16.8149C52.9519 15.759 52.0982 14.9062 51.0414 14.9062C49.9845 14.9062 49.1309 15.7658 49.1309 16.8149Z" fill="#009B9A"/>
<path d="M54.9766 16.8149C54.9766 17.8707 55.8302 18.7235 56.8871 18.7235C57.9439 18.7235 58.7976 17.8707 58.7976 16.8149C58.7976 15.759 57.9439 14.9062 56.8871 14.9062C55.8302 14.9062 54.9766 15.7658 54.9766 16.8149Z" fill="#009B9A"/>
<path d="M60.8242 16.8149C60.8242 17.8707 61.6779 18.7235 62.7347 18.7235C63.7916 18.7235 64.6452 17.8707 64.6452 16.8149C64.6452 15.759 63.7916 14.9062 62.7347 14.9062C61.6779 14.9062 60.8242 15.7658 60.8242 16.8149Z" fill="#009B9A"/>
<path d="M36.1022 41.6206C35.3027 41.6206 34.6523 42.2704 34.6523 43.069C34.6523 43.8677 35.3027 44.5174 36.1022 44.5174C36.9016 44.5174 37.5519 43.8677 37.5519 43.069C37.5519 42.2704 36.9016 41.6206 36.1022 41.6206Z" fill="#009B9A"/>
<path d="M41.3736 41.6206C40.5742 41.6206 39.9238 42.2704 39.9238 43.069C39.9238 43.8677 40.5742 44.5174 41.3736 44.5174C42.1731 44.5174 42.8235 43.8677 42.8235 43.069C42.8235 42.2704 42.1731 41.6206 41.3736 41.6206Z" fill="#009B9A"/>
<path d="M46.6373 41.6206C45.8379 41.6206 45.1875 42.2704 45.1875 43.069C45.1875 43.8677 45.8379 44.5174 46.6373 44.5174C47.4368 44.5174 48.0871 43.8677 48.0871 43.069C48.0871 42.2704 47.4368 41.6206 46.6373 41.6206Z" fill="#009B9A"/>
<path d="M42.654 38.5876C42.654 37.6874 41.9224 36.9497 41.0145 36.9497C40.1067 36.9497 39.375 37.6807 39.375 38.5876C39.375 39.4945 40.1067 40.2255 41.0145 40.2255C41.9224 40.2255 42.654 39.4878 42.654 38.5876Z" fill="#009B9A"/>
<path d="M47.4841 38.5876C47.4841 37.6874 46.7524 36.9497 45.8446 36.9497C44.9435 36.9497 44.2051 37.6807 44.2051 38.5876C44.2051 39.4945 44.9367 40.2255 45.8446 40.2255C46.7524 40.2255 47.4841 39.4878 47.4841 38.5876Z" fill="#009B9A"/>
<path d="M50.6747 36.9497C49.7736 36.9497 49.0352 37.6807 49.0352 38.5876C49.0352 39.4945 49.7668 40.2255 50.6747 40.2255C51.5757 40.2255 52.3142 39.4945 52.3142 38.5876C52.3142 37.6807 51.5825 36.9497 50.6747 36.9497Z" fill="#009B9A"/>
<path d="M55.5067 36.9497C54.6056 36.9497 53.8672 37.6807 53.8672 38.5876C53.8672 39.4945 54.5989 40.2255 55.5067 40.2255C56.4077 40.2255 57.1462 39.4945 57.1462 38.5876C57.1462 37.6807 56.4077 36.9497 55.5067 36.9497Z" fill="#009B9A"/>
<path d="M45.7566 33.5932C45.7566 32.5374 44.9029 31.6846 43.8461 31.6846C42.7892 31.6846 41.9355 32.5374 41.9355 33.5932C41.9355 34.6491 42.7892 35.5018 43.8461 35.5018C44.9029 35.5018 45.7566 34.6491 45.7566 33.5932Z" fill="#009B9A"/>
<path d="M49.307 35.5018C50.3639 35.5018 51.2175 34.6491 51.2175 33.5932C51.2175 32.5374 50.3639 31.6846 49.307 31.6846C48.2501 31.6846 47.3965 32.5374 47.3965 33.5932C47.3965 34.6491 48.2569 35.5018 49.307 35.5018Z" fill="#009B9A"/>
<path d="M56.6862 33.5932C56.6862 32.5374 55.8326 31.6846 54.7757 31.6846C53.7189 31.6846 52.8652 32.5374 52.8652 33.5932C52.8652 34.6491 53.7189 35.5018 54.7757 35.5018C55.8258 35.5018 56.6862 34.6491 56.6862 33.5932Z" fill="#009B9A"/>
<path d="M60.2347 31.6846C59.1779 31.6846 58.3242 32.5374 58.3242 33.5932C58.3242 34.6491 59.1779 35.5018 60.2347 35.5018C61.2916 35.5018 62.1452 34.6491 62.1452 33.5932C62.1452 32.5374 61.2916 31.6846 60.2347 31.6846Z" fill="#009B9A"/>
<path d="M43.2773 28.2329C43.2773 29.2887 44.131 30.1415 45.1878 30.1415C46.2447 30.1415 47.0984 29.2887 47.0984 28.2329C47.0984 27.177 46.2447 26.3242 45.1878 26.3242C44.1378 26.3242 43.2773 27.1838 43.2773 28.2329Z" fill="#009B9A"/>
<path d="M51.0336 26.3242C49.9767 26.3242 49.123 27.177 49.123 28.2329C49.123 29.2887 49.9767 30.1415 51.0336 30.1415C52.0904 30.1415 52.9441 29.2887 52.9441 28.2329C52.9441 27.177 52.0904 26.3242 51.0336 26.3242Z" fill="#009B9A"/>
<path d="M56.8871 26.3242C55.8302 26.3242 54.9766 27.177 54.9766 28.2329C54.9766 29.2887 55.8302 30.1415 56.8871 30.1415C57.9439 30.1415 58.7976 29.2887 58.7976 28.2329C58.7976 27.177 57.9372 26.3242 56.8871 26.3242Z" fill="#009B9A"/>
<path d="M62.7347 26.3242C61.6779 26.3242 60.8242 27.177 60.8242 28.2329C60.8242 29.2887 61.6779 30.1415 62.7347 30.1415C63.7916 30.1415 64.6452 29.2887 64.6452 28.2329C64.6452 27.177 63.7848 26.3242 62.7347 26.3242Z" fill="#009B9A"/>
<path d="M47.9312 22.5202C47.9312 21.3696 46.9963 20.4424 45.8514 20.4424C44.6996 20.4424 43.7715 21.3764 43.7715 22.5202C43.7715 23.6708 44.7064 24.5981 45.8514 24.5981C46.9963 24.5981 47.9312 23.6708 47.9312 22.5202Z" fill="#009B9A"/>
<path d="M51.8064 20.4424C50.6547 20.4424 49.7266 21.3764 49.7266 22.5202C49.7266 23.6708 50.6615 24.5981 51.8064 24.5981C52.9582 24.5981 53.8863 23.6641 53.8863 22.5202C53.8863 21.3696 52.9514 20.4424 51.8064 20.4424Z" fill="#009B9A"/>
<path d="M55.6816 22.5202C55.6816 23.6708 56.6166 24.5981 57.7615 24.5981C58.9132 24.5981 59.8414 23.6641 59.8414 22.5202C59.8414 21.3696 58.9065 20.4424 57.7615 20.4424C56.6166 20.4424 55.6816 21.3696 55.6816 22.5202Z" fill="#009B9A"/>
<path d="M63.7244 20.4424C62.5727 20.4424 61.6445 21.3764 61.6445 22.5202C61.6445 23.6708 62.5795 24.5981 63.7244 24.5981C64.8694 24.5981 65.8043 23.6641 65.8043 22.5202C65.8043 21.3696 64.8761 20.4424 63.7244 20.4424Z" fill="#009B9A"/>
<path d="M22.1128 0.530212C16.3678 0.631735 11.1511 2.87879 7.22852 6.50655H26.8891C28.5624 4.13768 30.5881 2.1072 32.8915 0.530212C32.8983 0.530212 32.8983 0.523438 32.9051 0.523438C29.8497 0.523438 26.259 0.523438 22.5125 0.523438C22.377 0.523437 22.2483 0.530212 22.1128 0.530212Z" fill="#009B9A"/>
<path d="M24.7961 10.0327H4.12613C2.83892 11.8466 1.81591 13.85 1.11133 16.0091H22.6756C23.1634 13.8974 23.8815 11.894 24.7961 10.0327Z" fill="#009B9A"/>
<path d="M21.9369 22.5199C21.9369 21.5115 21.9978 20.5165 22.0995 19.5352H0.271009C0.121963 20.5098 0.0270993 21.5047 0 22.5199C0.0203245 23.5351 0.115188 24.5301 0.271009 25.5115H22.0995C21.9978 24.5301 21.9369 23.5351 21.9369 22.5199Z" fill="#009B9A"/>
<path d="M22.6756 29.0449H1.11133C1.81591 31.1972 2.8457 33.2073 4.13291 35.0212H24.7961C23.8815 33.1532 23.1634 31.1498 22.6756 29.0449Z" fill="#009B9A"/>
<path d="M26.8959 38.5474H7.24219C11.2529 42.2496 16.6185 44.5237 22.5126 44.5237C26.2591 44.5237 29.8498 44.5237 32.9052 44.5237C30.6018 42.9467 28.5693 40.9162 26.8959 38.5474Z" fill="#009B9A"/>
<path d="M159.655 9.1123L142.176 36.2257L149.865 9.1123H140.672L132.346 38.439H150.726L167.995 11.6436L160.393 38.439H169.587L177.913 9.1123H159.655Z" fill="#009B9A"/>
<path d="M215.222 9.1123H189.654C186.47 9.1123 183.672 11.224 182.798 14.29L177.656 32.4085C176.796 35.4406 179.072 38.4457 182.222 38.4457H207.79C210.975 38.4457 213.773 36.334 214.647 33.268L219.789 15.1495C220.656 12.1174 218.379 9.1123 215.222 9.1123ZM206.361 30.0938H187.513L191.097 17.4643H209.945L206.361 30.0938Z" fill="#009B9A"/>
<path d="M263.019 9.1123L246.305 36.7063L245.018 9.1123H227.851L219.531 38.439H228.725L236.333 11.6504L237.573 38.439H255.262L271.304 11.955L263.784 38.439H272.985L281.304 9.1123H263.019Z" fill="#009B9A"/>
<path d="M297.795 9.1123L276.678 38.4457H287.524L292.585 31.4203H306.832V38.4457H316.033V9.1123H297.795ZM297.05 25.2071L306.826 11.6301V25.2071H297.05Z" fill="#009B9A"/>
<path d="M365.807 9.1123L359.852 30.0937H350.571L356.519 9.1123H347.326L341.37 30.0937H332.089L338.037 9.1123H328.844L320.518 38.439H366.681L375.001 9.1123H365.807Z" fill="#009B9A"/>
<path d="M125.402 9.1123H110.612L103.885 17.4575H103.919L87.0156 38.439H97.8553L114.711 17.4575H121.865L115.91 38.439H125.11L133.43 9.1123H125.402Z" fill="#009B9A"/>
</svg>
